<?xml version="1.0" encoding="UTF-8" standalone="no"?>
<!-- Created with Inkscape (http://www.inkscape.org/) -->

<svg
   width="200.07112mm"
   height="141.66528mm"
   viewBox="0 0 200.07112 141.66528"
   version="1.1"
   id="svg5"
   inkscape:version="1.1 (c68e22c387, 2021-05-23)"
   sodipodi:docname="no picture yet.svg"
   xmlns:inkscape="http://www.inkscape.org/namespaces/inkscape"
   xmlns:sodipodi="http://sodipodi.sourceforge.net/DTD/sodipodi-0.dtd"
   xmlns="http://www.w3.org/2000/svg"
   xmlns:svg="http://www.w3.org/2000/svg">
  <sodipodi:namedview
     id="namedview7"
     pagecolor="#505050"
     bordercolor="#eeeeee"
     borderopacity="1"
     inkscape:pageshadow="0"
     inkscape:pageopacity="0"
     inkscape:pagecheckerboard="0"
     inkscape:document-units="mm"
     showgrid="false"
     showguides="true"
     inkscape:guide-bbox="true"
     inkscape:snap-bbox="true"
     inkscape:bbox-nodes="true"
     inkscape:snap-bbox-edge-midpoints="true"
     inkscape:snap-bbox-midpoints="true"
     inkscape:bbox-paths="true"
     inkscape:zoom="0.42582772"
     inkscape:cx="499.0281"
     inkscape:cy="261.84298"
     inkscape:window-width="1366"
     inkscape:window-height="705"
     inkscape:window-x="-8"
     inkscape:window-y="-8"
     inkscape:window-maximized="1"
     inkscape:current-layer="layer1" />
  <defs
     id="defs2" />
  <g
     inkscape:label="Layer 1"
     inkscape:groupmode="layer"
     id="layer1"
     transform="translate(8.6987467,-67.725937)">
    <rect
       style="fill:#e6e6e6;stroke:none;stroke-width:1;stroke-linecap:square"
       id="rect846"
       width="200.07112"
       height="141.66528"
       x="-8.6987467"
       y="67.725937" />
    <path
       id="rect2372"
       style="opacity:1;fill:#bfbfbf;stroke:none;stroke-width:4;stroke-linecap:square;stroke-miterlimit:4;stroke-dasharray:none;stroke-opacity:1;fill-opacity:1"
       d="M 55.254003,97.614616 V 151.38394 H 127.41962 V 97.614616 Z m 3.626136,3.626654 h 64.913351 v 46.51654 H 58.880139 Z m 39.156266,8.12767 a 6.7001323,6.7001323 0 0 0 -6.69985,6.70036 6.7001323,6.7001323 0 0 0 6.69985,6.70037 6.7001323,6.7001323 0 0 0 6.700365,-6.70037 6.7001323,6.7001323 0 0 0 -6.700365,-6.70036 z m -20.86901,6.48074 -14.660605,14.6606 v 13.62088 h 57.66005 v -5.93143 l -12.02511,-12.0251 -10.32495,10.32443 z" />
    <g
       aria-label="No picture yet"
       id="text3333"
       style="font-size:16.9333px;line-height:1.25;stroke-width:0.264583;fill:#b3b3b3">
      <path
         d="m 35.431619,180.60909 h 2.489196 v -8.09412 h 0.03387 l 5.02919,8.09412 h 2.658528 v -12.09038 h -2.489195 v 8.11105 h -0.03387 l -5.046124,-8.11105 h -2.641595 z"
         style="font-weight:bold;font-family:'Helvetica Neue';-inkscape-font-specification:'Helvetica Neue Bold';fill:#b3b3b3"
         id="path6753" />
      <path
         d="m 47.45425,176.24029 c 0,2.77706 1.777996,4.60586 4.521191,4.60586 2.760128,0 4.538124,-1.8288 4.538124,-4.60586 0,-2.79399 -1.777996,-4.62279 -4.538124,-4.62279 -2.743195,0 -4.521191,1.8288 -4.521191,4.62279 z m 2.404528,0 c 0,-1.40546 0.491066,-2.81092 2.116663,-2.81092 1.64253,0 2.133596,1.40546 2.133596,2.81092 0,1.38853 -0.491066,2.794 -2.133596,2.794 -1.625597,0 -2.116663,-1.40547 -2.116663,-2.794 z"
         style="font-weight:bold;font-family:'Helvetica Neue';-inkscape-font-specification:'Helvetica Neue Bold';fill:#b3b3b3"
         id="path6755" />
      <path
         d="m 62.778852,183.69095 h 2.404529 v -4.1656 h 0.03387 c 0.575732,0.8636 1.574797,1.3208 2.624661,1.3208 2.556928,0 3.843859,-2.18439 3.843859,-4.52119 0,-2.48919 -1.236131,-4.70746 -3.979325,-4.70746 -1.083731,0 -2.031996,0.42334 -2.607728,1.35467 h -0.03387 v -1.1176 h -2.285996 z m 4.419592,-4.65666 c -1.557864,0 -2.099729,-1.35467 -2.099729,-2.77706 0,-1.4224 0.507999,-2.82786 2.082795,-2.82786 1.540931,0 2.09973,1.43933 2.09973,2.82786 0,1.42239 -0.507999,2.77706 -2.082796,2.77706 z"
         style="font-weight:bold;font-family:'Helvetica Neue';-inkscape-font-specification:'Helvetica Neue Bold';fill:#b3b3b3"
         id="path6757" />
      <path
         d="m 73.192802,180.60909 h 2.404528 v -8.75452 h -2.404528 z m 2.404528,-12.09038 h -2.404528 v 1.98119 h 2.404528 z"
         style="font-weight:bold;font-family:'Helvetica Neue';-inkscape-font-specification:'Helvetica Neue Bold';fill:#b3b3b3"
         id="path6759" />
      <path
         d="m 85.808101,174.93643 c -0.1524,-2.2352 -2.048929,-3.31893 -4.114792,-3.31893 -2.844794,0 -4.470391,2.01507 -4.470391,4.74133 0,2.62466 1.777996,4.48732 4.419591,4.48732 2.302929,0 3.911593,-1.27 4.216392,-3.58986 h -2.319862 c -0.1524,1.0668 -0.795865,1.778 -1.913463,1.778 -1.507064,0 -1.998129,-1.50707 -1.998129,-2.76013 0,-1.28693 0.507999,-2.84479 2.048929,-2.84479 0.999065,0 1.625597,0.52493 1.777996,1.50706 z"
         style="font-weight:bold;font-family:'Helvetica Neue';-inkscape-font-specification:'Helvetica Neue Bold';fill:#b3b3b3"
         id="path6761" />
      <path
         d="M 90.261548,169.22991 H 87.85702 v 2.62466 h -1.456264 v 1.60866 h 1.456264 v 5.16466 c 0,1.74413 1.286931,2.08279 2.760128,2.08279 0.474132,0 0.999064,-0.0169 1.405464,-0.0847 v -1.8796 c -0.254,0.0508 -0.491066,0.0677 -0.745066,0.0677 -0.812798,0 -1.015998,-0.2032 -1.015998,-1.016 v -4.33493 h 1.761064 v -1.60866 h -1.761064 z"
         style="font-weight:bold;font-family:'Helvetica Neue';-inkscape-font-specification:'Helvetica Neue Bold';fill:#b3b3b3"
         id="path6763" />
      <path
         d="m 101.38672,171.85457 h -2.404533 v 4.58892 c 0,1.778 -0.558799,2.50613 -1.862663,2.50613 -1.117598,0 -1.540931,-0.7112 -1.540931,-2.15053 v -4.94452 h -2.404528 v 5.38479 c 0,2.16746 0.643465,3.60679 3.200393,3.60679 1.015998,0 2.065863,-0.47413 2.675462,-1.45626 h 0.0508 v 1.2192 h 2.286 z"
         style="font-weight:bold;font-family:'Helvetica Neue';-inkscape-font-specification:'Helvetica Neue Bold';fill:#b3b3b3"
         id="path6765" />
      <path
         d="m 103.21548,180.60909 h 2.40453 v -3.94546 c 0,-1.54093 0.6096,-2.81093 2.37067,-2.81093 0.28786,0 0.64346,0.0339 0.86359,0.0847 v -2.23519 c -0.1524,-0.0508 -0.3556,-0.0847 -0.52493,-0.0847 -1.1684,0 -2.35373,0.762 -2.79399,1.86267 h -0.0339 v -1.6256 h -2.286 z"
         style="font-weight:bold;font-family:'Helvetica Neue';-inkscape-font-specification:'Helvetica Neue Bold';fill:#b3b3b3"
         id="path6767" />
      <path
         d="m 117.79503,176.81603 c 0.16933,-2.6924 -1.27,-5.19853 -4.25026,-5.19853 -2.65853,0 -4.47039,1.99813 -4.47039,4.62279 0,2.70933 1.71026,4.60586 4.47039,4.60586 1.9812,0 3.42053,-0.88053 4.09786,-2.94639 h -2.11666 c -0.1524,0.54186 -0.93134,1.13453 -1.89653,1.13453 -1.33773,0 -2.0828,-0.69427 -2.15053,-2.21826 z m -6.31612,-1.524 c 0.0339,-0.67733 0.47413,-1.86266 1.99813,-1.86266 1.16839,0 1.69333,0.64346 1.91346,1.86266 z"
         style="font-weight:bold;font-family:'Helvetica Neue';-inkscape-font-specification:'Helvetica Neue Bold';fill:#b3b3b3"
         id="path6769" />
      <path
         d="m 131.90046,171.85457 h -2.4892 l -1.91346,5.99439 h -0.0339 l -1.98119,-5.99439 h -2.57386 l 3.08186,8.21265 c 0.27093,0.69426 0,1.55786 -0.82974,1.64253 -0.47413,0.0169 -0.94826,-0.0508 -1.40546,-0.0847 v 1.9812 c 0.49107,0.0508 0.98213,0.0847 1.4732,0.0847 1.65946,0 2.48919,-0.57574 3.01412,-1.9812 z"
         style="font-weight:bold;font-family:'Helvetica Neue';-inkscape-font-specification:'Helvetica Neue Bold';fill:#b3b3b3"
         id="path6771" />
      <path
         d="m 141.01055,176.81603 c 0.16933,-2.6924 -1.27,-5.19853 -4.25026,-5.19853 -2.65853,0 -4.47039,1.99813 -4.47039,4.62279 0,2.70933 1.71026,4.60586 4.47039,4.60586 1.9812,0 3.42053,-0.88053 4.09786,-2.94639 h -2.11666 c -0.1524,0.54186 -0.93133,1.13453 -1.89653,1.13453 -1.33773,0 -2.0828,-0.69427 -2.15053,-2.21826 z m -6.31612,-1.524 c 0.0339,-0.67733 0.47413,-1.86266 1.99813,-1.86266 1.1684,0 1.69333,0.64346 1.91346,1.86266 z"
         style="font-weight:bold;font-family:'Helvetica Neue';-inkscape-font-specification:'Helvetica Neue Bold';fill:#b3b3b3"
         id="path6773" />
      <path
         d="m 145.48094,169.22991 h -2.40453 v 2.62466 h -1.45626 v 1.60866 h 1.45626 v 5.16466 c 0,1.74413 1.28693,2.08279 2.76013,2.08279 0.47413,0 0.99906,-0.0169 1.40546,-0.0847 v -1.8796 c -0.254,0.0508 -0.49106,0.0677 -0.74506,0.0677 -0.8128,0 -1.016,-0.2032 -1.016,-1.016 v -4.33493 h 1.76106 v -1.60866 h -1.76106 z"
         style="font-weight:bold;font-family:'Helvetica Neue';-inkscape-font-specification:'Helvetica Neue Bold';fill:#b3b3b3"
         id="path6775" />
    </g>
  </g>
</svg>
