<?xml version="1.0" encoding="UTF-8"?>
<!-- Created with Inkscape (http://www.inkscape.org/) -->
<svg width="200.07mm" height="103.62mm" version="1.1" viewBox="0 0 200.07 103.62" xmlns="http://www.w3.org/2000/svg">
 <rect width="200.07" height="103.62" fill="#e6e6e6" stroke-width=".93734"/>
 <g transform="translate(8.6986 -101.8)">
  <path d="m66.12 123.54v37.577h50.433v-37.577zm2.5341 2.5345h45.365v32.508h-45.365zm27.364 5.68a4.6824 4.6824 0 0 0-4.6822 4.6826 4.6824 4.6824 0 0 0 4.6822 4.6826 4.6824 4.6824 0 0 0 4.6826-4.6826 4.6824 4.6824 0 0 0-4.6826-4.6826zm-14.584 4.5291-10.246 10.246v9.519h40.296v-4.1452l-8.4038-8.4038-7.2156 7.2152z" fill="#bfbfbf"/>
  <g transform="matrix(.69885 0 0 .69885 27.506 55.318)" fill="#b3b3b3" stroke-width=".26458" aria-label="No picture yet">
   <path d="m35.432 180.61h2.4892v-8.0941h0.03387l5.0292 8.0941h2.6585v-12.09h-2.4892v8.111h-0.03387l-5.0461-8.111h-2.6416z"/>
   <path d="m47.454 176.24c0 2.7771 1.778 4.6059 4.5212 4.6059 2.7601 0 4.5381-1.8288 4.5381-4.6059 0-2.794-1.778-4.6228-4.5381-4.6228-2.7432 0-4.5212 1.8288-4.5212 4.6228zm2.4045 0c0-1.4055 0.49107-2.8109 2.1167-2.8109 1.6425 0 2.1336 1.4055 2.1336 2.8109 0 1.3885-0.49107 2.794-2.1336 2.794-1.6256 0-2.1167-1.4055-2.1167-2.794z"/>
   <path d="m62.779 183.69h2.4045v-4.1656h0.03387c0.57573 0.8636 1.5748 1.3208 2.6247 1.3208 2.5569 0 3.8439-2.1844 3.8439-4.5212 0-2.4892-1.2361-4.7075-3.9793-4.7075-1.0837 0-2.032 0.42334-2.6077 1.3547h-0.03387v-1.1176h-2.286zm4.4196-4.6567c-1.5579 0-2.0997-1.3547-2.0997-2.7771s0.508-2.8279 2.0828-2.8279c1.5409 0 2.0997 1.4393 2.0997 2.8279 0 1.4224-0.508 2.7771-2.0828 2.7771z"/>
   <path d="m73.193 180.61h2.4045v-8.7545h-2.4045zm2.4045-12.09h-2.4045v1.9812h2.4045z"/>
   <path d="m85.808 174.94c-0.1524-2.2352-2.0489-3.3189-4.1148-3.3189-2.8448 0-4.4704 2.0151-4.4704 4.7413 0 2.6247 1.778 4.4873 4.4196 4.4873 2.3029 0 3.9116-1.27 4.2164-3.5899h-2.3199c-0.1524 1.0668-0.79586 1.778-1.9135 1.778-1.5071 0-1.9981-1.5071-1.9981-2.7601 0-1.2869 0.508-2.8448 2.0489-2.8448 0.99906 0 1.6256 0.52493 1.778 1.5071z"/>
   <path d="m90.262 169.23h-2.4045v2.6247h-1.4563v1.6087h1.4563v5.1647c0 1.7441 1.2869 2.0828 2.7601 2.0828 0.47413 0 0.99906-0.0169 1.4055-0.0847v-1.8796c-0.254 0.0508-0.49107 0.0677-0.74507 0.0677-0.8128 0-1.016-0.2032-1.016-1.016v-4.3349h1.7611v-1.6087h-1.7611z"/>
   <path d="m101.39 171.85h-2.4045v4.5889c0 1.778-0.5588 2.5061-1.8627 2.5061-1.1176 0-1.5409-0.7112-1.5409-2.1505v-4.9445h-2.4045v5.3848c0 2.1675 0.64346 3.6068 3.2004 3.6068 1.016 0 2.0659-0.47413 2.6755-1.4563h0.0508v1.2192h2.286z"/>
   <path d="m103.22 180.61h2.4045v-3.9455c0-1.5409 0.6096-2.8109 2.3707-2.8109 0.28786 0 0.64346 0.0339 0.86359 0.0847v-2.2352c-0.1524-0.0508-0.3556-0.0847-0.52493-0.0847-1.1684 0-2.3537 0.762-2.794 1.8627h-0.0339v-1.6256h-2.286z"/>
   <path d="m117.8 176.82c0.16933-2.6924-1.27-5.1985-4.2503-5.1985-2.6585 0-4.4704 1.9981-4.4704 4.6228 0 2.7093 1.7103 4.6059 4.4704 4.6059 1.9812 0 3.4205-0.88053 4.0979-2.9464h-2.1167c-0.1524 0.54186-0.93134 1.1345-1.8965 1.1345-1.3377 0-2.0828-0.69427-2.1505-2.2183zm-6.3161-1.524c0.0339-0.67733 0.47413-1.8627 1.9981-1.8627 1.1684 0 1.6933 0.64346 1.9135 1.8627z"/>
   <path d="m131.9 171.85h-2.4892l-1.9135 5.9944h-0.0339l-1.9812-5.9944h-2.5739l3.0819 8.2126c0.27093 0.69426 0 1.5579-0.82974 1.6425-0.47413 0.0169-0.94826-0.0508-1.4055-0.0847v1.9812c0.49107 0.0508 0.98213 0.0847 1.4732 0.0847 1.6595 0 2.4892-0.57574 3.0141-1.9812z"/>
   <path d="m141.01 176.82c0.16933-2.6924-1.27-5.1985-4.2503-5.1985-2.6585 0-4.4704 1.9981-4.4704 4.6228 0 2.7093 1.7103 4.6059 4.4704 4.6059 1.9812 0 3.4205-0.88053 4.0979-2.9464h-2.1167c-0.1524 0.54186-0.93133 1.1345-1.8965 1.1345-1.3377 0-2.0828-0.69427-2.1505-2.2183zm-6.3161-1.524c0.0339-0.67733 0.47413-1.8627 1.9981-1.8627 1.1684 0 1.6933 0.64346 1.9135 1.8627z"/>
   <path d="m145.48 169.23h-2.4045v2.6247h-1.4563v1.6087h1.4563v5.1647c0 1.7441 1.2869 2.0828 2.7601 2.0828 0.47413 0 0.99906-0.0169 1.4055-0.0847v-1.8796c-0.254 0.0508-0.49106 0.0677-0.74506 0.0677-0.8128 0-1.016-0.2032-1.016-1.016v-4.3349h1.7611v-1.6087h-1.7611z"/>
  </g>
 </g>
</svg>
